HIERARCHY
ROOT Hips
{
	OFFSET 0.000000 0.000000 0.000000 
	CHANNELS 6 Xposition Yposition Zposition Zrotation Xrotation Yrotation
	JOINT Spine
	{
		OFFSET -0.000000 8.061080 0.000000 
		CHANNELS 3 Zrotation Xrotation Yrotation
		JOINT Spine1
		{
			OFFSET -0.000000 20.532677 0.000000 
			CHANNELS 3 Zrotation Xrotation Yrotation
			JOINT Neck
			{
				OFFSET -0.000000 22.498795 0.000000 
				CHANNELS 3 Zrotation Xrotation Yrotation
				JOINT Head
				{
					OFFSET -0.000000 15.237408 1.966117 
					CHANNELS 3 Zrotation Xrotation Yrotation
					End Site
					{
						OFFSET -0.000000 19.661171 0.000000 
					}
				}
			}
			JOINT LeftShoulder
			{
				OFFSET 3.894675 16.042269 -0.398189 
				CHANNELS 3 Zrotation Xrotation Yrotation
				JOINT LeftArm
				{
					OFFSET 19.709621 0.000000 0.000000 
					CHANNELS 3 Zrotation Xrotation Yrotation
					JOINT LeftForeArm
					{
						OFFSET 25.566900 0.000000 0.000000 
						CHANNELS 3 Zrotation Xrotation Yrotation
						JOINT LeftHand
						{
							OFFSET 25.401896 0.000000 0.000000 
							CHANNELS 3 Zrotation Xrotation Yrotation
							End Site
							{
								OFFSET 14.745877 0.000000 0.000000 
							}
						}
					}
				}
			}
			JOINT RightShoulder
			{
				OFFSET -3.930777 16.042269 -0.398189 
				CHANNELS 3 Zrotation Xrotation Yrotation
				JOINT RightArm
				{
					OFFSET -19.709621 0.000000 0.000000 
					CHANNELS 3 Zrotation Xrotation Yrotation
					JOINT RightForeArm
					{
						OFFSET -25.566900 0.000000 0.000000 
						CHANNELS 3 Zrotation Xrotation Yrotation
						JOINT RightHand
						{
							OFFSET -25.401896 0.000000 0.000000 
							CHANNELS 3 Zrotation Xrotation Yrotation
							End Site
							{
								OFFSET -14.745877 0.000000 0.000000 
							}
						}
					}
				}
			}
		}
	}
	JOINT LeftUpLeg
	{
		OFFSET 9.830585 0.000000 0.000000 
		CHANNELS 3 Zrotation Xrotation Yrotation
		JOINT LeftLeg
		{
			OFFSET -0.000000 -46.474842 0.000000 
			CHANNELS 3 Zrotation Xrotation Yrotation
			JOINT LeftFoot
			{
				OFFSET -0.000000 -30.290520 0.000000 
				CHANNELS 3 Zrotation Xrotation Yrotation
				JOINT LeftToeBase
				{
					OFFSET -0.000000 -6.389880 14.745877 
					CHANNELS 3 Zrotation Xrotation Yrotation
					End Site
					{
						OFFSET -0.000000 0.000000 3.932234 
					}
				}
			}
		}
	}
	JOINT RightUpLeg
	{
		OFFSET -9.830585 0.000000 0.000000 
		CHANNELS 3 Zrotation Xrotation Yrotation
		JOINT RightLeg
		{
			OFFSET -0.000000 -46.474842 0.000000 
			CHANNELS 3 Zrotation Xrotation Yrotation
			JOINT RightFoot
			{
				OFFSET -0.000000 -30.290520 0.000000 
				CHANNELS 3 Zrotation Xrotation Yrotation
				JOINT RightToeBase
				{
					OFFSET -0.000000 -6.389880 14.745877 
					CHANNELS 3 Zrotation Xrotation Yrotation
					End Site
					{
						OFFSET -0.000000 0.000000 3.932234 
					}
				}
			}
		}
	}
}
MOTION
Frames: 6
Frame Time: 0.010000
2.700956 84.210732 4.968572 -1.778320 5.784651 29.270113 1.964665 -2.940966 0.310716 0.913735 -0.428444 0.089543 3.715889 5.963549 5.953472 -7.852603 1.988815 7.983499 4.073229 10.532966 -0.416285 -65.402527 29.334110 -24.093063 -16.281818 1.365385 -10.640016 4.598613 -0.012852 3.688410 -8.886546 10.071348 -9.387552 57.758564 52.351791 35.716049 4.801770 -6.599066 7.204859 -1.622577 -6.906655 0.515251 0.346938 0.094624 -2.545499 0.155372 2.558013 7.498905 -2.479836 -5.497518 -4.962185 0.000000 0.000000 0.000000 -10.570002 -23.441303 13.979330 13.096305 16.074677 -13.987069 -13.129465 4.458891 -3.412760 0.000000 0.000000 0.000000 
2.532416 84.228470 5.281969 -1.905038 5.839889 30.116550 2.062408 -2.956239 0.348833 0.950469 -0.389466 0.100983 3.831992 5.951698 6.233779 -8.183506 1.967979 8.340397 4.087967 10.493684 -0.443485 -65.533386 29.188608 -24.108631 -16.173916 1.348950 -10.564591 4.625244 -0.013758 3.533481 -8.930322 10.047344 -9.355768 57.959843 52.344193 35.542885 4.894230 -6.622404 7.187587 -1.806601 -6.936109 0.531500 0.527526 -0.048544 -2.619587 0.219021 2.854871 7.353987 -2.900581 -5.610836 -4.838419 0.000000 0.000000 0.000000 -10.550764 -23.272844 14.041451 12.986639 15.739962 -13.968967 -12.833576 4.365684 -3.596950 0.000000 0.000000 0.000000 
2.360369 84.247948 5.598496 -2.035903 5.889781 30.977114 2.161734 -2.974804 0.391365 0.986959 -0.351106 0.113885 3.950934 5.953461 6.507275 -8.512992 1.937723 8.690170 4.101018 10.457479 -0.468477 -65.670174 29.036806 -24.128481 -16.054886 1.335792 -10.492287 4.645755 -0.010946 3.382765 -8.972725 10.021095 -9.323684 58.147480 52.339596 35.378162 4.996725 -6.651379 7.172007 -2.000036 -6.971906 0.544229 0.738136 -0.080171 -2.684420 0.071772 3.295712 0.135295 -2.121875 -6.614334 2.589954 0.000000 0.000000 0.000000 -10.528517 -23.093723 14.090464 12.879982 15.408767 -13.960665 -12.572248 4.273260 -3.761950 0.000000 0.000000 0.000000 
2.184804 84.269211 5.917254 -2.171014 5.934733 31.852041 2.261361 -2.996511 0.437140 1.023876 -0.314115 0.127988 4.071617 5.968546 6.771908 -8.838909 1.897606 9.030104 4.112248 10.424440 -0.491334 -65.812248 28.879711 -24.152903 -15.924851 1.325596 -10.423368 4.659994 -0.004898 3.236784 -9.013711 9.992713 -9.291530 58.319553 52.338257 35.223469 5.109200 -6.686139 7.158909 -2.202081 -7.014192 0.553127 0.939439 -0.183492 -2.735473 0.125137 3.457398 0.153845 -2.548621 -6.661896 2.550909 0.000000 0.000000 0.000000 -10.503315 -22.905424 14.125953 12.776172 15.081081 -13.962765 -12.343737 4.183000 -3.908854 0.000000 0.000000 0.000000 
2.005753 84.292267 6.237312 -2.310458 5.975184 32.741604 2.360124 -3.021235 0.485372 1.061634 -0.279271 0.142573 4.193091 5.996243 7.025679 -9.159001 1.847892 9.357609 4.121639 10.394522 -0.512341 -65.958923 28.718204 -24.181700 -15.784449 1.317863 -10.358484 4.668167 0.004054 3.096091 -9.052968 9.962322 -9.259378 58.474403 52.340187 35.079975 5.231385 -6.726695 7.148985 -2.411866 -7.062979 0.557984 1.144092 -0.290867 -2.775015 0.185551 3.613815 0.171499 -2.981596 -6.693045 2.515301 0.000000 0.000000 0.000000 -10.475377 -22.709415 14.147406 12.675126 14.756841 -13.975883 -12.145702 4.096169 -4.039374 0.000000 0.000000 0.000000 
1.823291 84.317154 6.557719 -2.454264 6.011565 33.646149 2.456968 -3.048735 0.534571 1.100544 -0.247335 0.157527 4.314540 6.035748 7.266763 -9.471460 1.788582 9.670323 4.129060 10.367624 -0.531730 -66.109444 28.553759 -24.215012 -15.633917 1.312361 -10.297791 4.670313 0.014937 2.961048 -9.090490 9.930132 -9.227511 58.610817 52.345154 34.948647 5.363070 -6.772820 7.143265 -2.628515 -7.118043 0.558413 1.351382 -0.403653 -2.803343 0.253135 3.764509 0.188190 -3.419271 -6.706496 2.483589 0.000000 0.000000 0.000000 -10.445051 -22.507172 14.154218 12.576509 14.436066 -14.000471 -11.975305 4.014122 -4.155085 0.000000 0.000000 0.000000 
